<svg xmlns="http://www.w3.org/2000/svg" viewBox="0 0 32.08 32"><defs><style>.cls-1{fill-rule:evenodd;}</style></defs><g id="Capa_2" data-name="Capa 2"><g id="RADIO_Image" data-name="RADIO Image"><path class="cls-1" d="M16.87,0l.22,0,1,.11a1,1,0,0,1,.46.18.88.88,0,0,1,.38.71c0,.15,0,.3,0,.45,0,.3-.07.61-.11.91a1.89,1.89,0,0,1-.09.34.78.78,0,0,1-.44.45l-.08,0,.39,2.44-.72-.08L17.48,3.3l-.27,0L17,5.48l-.72-.08c0-.15,0-.3.05-.45.05-.42.1-.84.14-1.26l.15-1.3c.05-.42.09-.84.14-1.25s.09-.76.13-1.14Zm.41,2.59.45,0a.31.31,0,0,0,.3-.21,1.1,1.1,0,0,0,.06-.26c0-.23.06-.46.08-.7a1.74,1.74,0,0,0,0-.32A.31.31,0,0,0,17.9.83l-.34,0h-.07Z"/><path class="cls-1" d="M32.08,16.26s0,0,0,0a.88.88,0,0,1-.77.78,1.34,1.34,0,0,1-.35,0H30a1.41,1.41,0,0,1-.46-.05.84.84,0,0,1-.66-.8c0-.16,0-.33,0-.49s0-.07,0-.12l-2.22,0V15c.08,0,5.23-.11,5.4-.09v.26c0,.12,0,.24,0,.37Zm-2.51-.62c0,.17,0,.33,0,.48a.28.28,0,0,0,.2.23,1.09,1.09,0,0,0,.26,0h.8a1.54,1.54,0,0,0,.3,0,.28.28,0,0,0,.22-.23,2.08,2.08,0,0,0,0-.5Z"/><path class="cls-1" d="M9.25,7.86l-.63.68L5.4,6.81l0,0L8,9.23l-.49.53-4-3.71.62-.66L7.43,7.14v0C6.56,6.31,5.69,5.49,4.8,4.68l.49-.52C5.36,4.2,9.13,7.72,9.25,7.86Z"/><path class="cls-1" d="M21.84,3.16,20.29,6.3,19.64,6l2.43-4.85.81.4c-.25,1.22-.49,2.43-.74,3.65h0L23.75,2l.65.32L22,7.14l-.85-.42c.25-1.18.5-2.36.74-3.55Z"/><path class="cls-1" d="M26.25,24.72c-.09,0-.16.07-.24.09a.73.73,0,0,1-.58,0,.82.82,0,0,1-.2-.12c-.23-.17-.45-.34-.67-.53a1.47,1.47,0,0,1-.3-.31.87.87,0,0,1,0-1,.5.5,0,0,1,.08-.12l.75-1a.21.21,0,0,1,0-.06L29.38,25l0,.05-.72.92a.88.88,0,0,1-.42.32.82.82,0,0,1-.65,0,1.76,1.76,0,0,1-.38-.21l-.6-.46a.81.81,0,0,1-.33-.51,1.2,1.2,0,0,1,0-.27A.44.44,0,0,1,26.25,24.72ZM25.2,22.65l-.32.42a.29.29,0,0,0,0,.34,1,1,0,0,0,.17.19l.6.46a.72.72,0,0,0,.21.12.37.37,0,0,0,.36-.06,2.6,2.6,0,0,0,.33-.4Zm3.19,2.49-1.28-1c-.09.13-.19.25-.27.37a.28.28,0,0,0,0,.34,1.19,1.19,0,0,0,.19.2c.15.13.32.26.48.38l.21.12a.31.31,0,0,0,.39-.08C28.22,25.37,28.3,25.26,28.39,25.14Z"/><path class="cls-1" d="M2.75,24.89l-.06-.07-.55-1A1,1,0,0,1,2,23.37a.83.83,0,0,1,.22-.62,1.81,1.81,0,0,1,.41-.32l2.26-1.29.55-.31a1.23,1.23,0,0,1,.45-.17A.85.85,0,0,1,6.7,21a1.33,1.33,0,0,1,.14.19l.58,1a.39.39,0,0,0,0,.06Zm.23-1,3.52-2c-.09-.14-.15-.27-.24-.39a.28.28,0,0,0-.34-.11.87.87,0,0,0-.25.1L3.05,23a.83.83,0,0,0-.21.16.29.29,0,0,0-.07.37A3.59,3.59,0,0,0,3,23.93Z"/><path class="cls-1" d="M10.73,31.13,10,30.81l-.41-.19A.9.9,0,0,1,9,30a1.06,1.06,0,0,1,0-.5l0-.12.51-1.16A.76.76,0,0,1,9.72,28a.75.75,0,0,1,.61-.35h.06l.33-2.44.67.29-.31,2.29.25.11c.3-.68.58-1.36.88-2.05l.67.29Zm.33-2.59-.29-.12-.09,0a.34.34,0,0,0-.4.12,2,2,0,0,0-.11.2l-.33.76a2.17,2.17,0,0,0-.07.24.3.3,0,0,0,.12.3,1.49,1.49,0,0,0,.46.2Z"/><path class="cls-1" d="M2.83,14.76l1.66,0a2.35,2.35,0,0,1,.37.05.9.9,0,0,1,.7.65,1.45,1.45,0,0,1,0,.85,1,1,0,0,1-.88.68,2.08,2.08,0,0,1-.25,0L1.13,17a1.32,1.32,0,0,1-.34,0,.89.89,0,0,1-.72-.66,1.48,1.48,0,0,1,0-.86.87.87,0,0,1,.79-.66,2,2,0,0,1,.35,0l1.63,0Zm-.17,1.51,1.71,0a1,1,0,0,0,.3,0,.37.37,0,0,0,.26-.34.38.38,0,0,0-.24-.36,1.37,1.37,0,0,0-.28-.05l-3.17,0-.27,0a.35.35,0,0,0-.27.35.36.36,0,0,0,.26.37.86.86,0,0,0,.28,0Z"/><path class="cls-1" d="M31.6,20.1l-.23.68-.13,0-3.87-1.31a1.34,1.34,0,0,0-.27-.07.38.38,0,0,0-.45.42.37.37,0,0,0,.18.27l.28.13,3.48,1.18.43.14.09,0-.23.67-.12,0-4-1.35a1.58,1.58,0,0,1-.35-.16.93.93,0,0,1-.49-.94,1.37,1.37,0,0,1,.19-.59,1,1,0,0,1,1.16-.49c.25.07.5.16.75.24l3.43,1.17Z"/><path class="cls-1" d="M8.12,23.08l.54.48-.7,1,.6.53.91-.8.54.48L5.85,28.32l-.79-.7Zm-.55,2L6.1,27.22a0,0,0,0,0,0,0h0L8,25.54Z"/><path class="cls-1" d="M17.26,28.36l-.71.09c0-.11,0-.22-.05-.32l-.06-.48a2.84,2.84,0,0,1,0-.41.87.87,0,0,1,.46-.66,1.32,1.32,0,0,1,1-.13.89.89,0,0,1,.69.69,4.54,4.54,0,0,1,.09.51c.06.49.13,1,.19,1.47l.18,1.44a2,2,0,0,1,0,.54.89.89,0,0,1-.41.67,1.35,1.35,0,0,1-1.15.17.8.8,0,0,1-.58-.56,3.56,3.56,0,0,1-.1-.47l-.09-.75.71-.09c0,.11,0,.21,0,.31s0,.34.07.5a.9.9,0,0,0,.08.23.37.37,0,0,0,.68-.09.93.93,0,0,0,0-.29c-.11-.81-.21-1.63-.32-2.44L18,27.57a1.12,1.12,0,0,0-.08-.26.36.36,0,0,0-.38-.21.36.36,0,0,0-.32.33,1.93,1.93,0,0,0,0,.34C17.21,28,17.24,28.15,17.26,28.36Z"/><path class="cls-1" d="M13.65,5l1.19-.24.14.67-1.9.39L12,.53,13.9.15,14,.82l-1.2.24.33,1.62,1.15-.23.13.68-1.14.23Z"/><path class="cls-1" d="M26.93,4.22l1.35,1.4-.49.47-.85-.87L25.75,6.37l.81.84-.49.48-.81-.84L24,8l.85.88-.49.47L23,8Z"/><path class="cls-1" d="M25.31,10.83l4.2-2.19-.31-.59.61-.32,1,1.83-.61.32-.31-.6-4.2,2.19Z"/><path class="cls-1" d="M8.54,2.7,7.94,3l-.32-.6,1.82-1,.32.6-.59.32q1.13,2.09,2.24,4.17l-.63.35Z"/><path class="cls-1" d="M22.56,25.24l-.71.5-.4-.56,1.3-.92c1,1.48,2.09,2.95,3.14,4.43l-.59.41Z"/><path class="cls-1" d="M1.65,9.14,2,8.5l4.84,2.44-.32.65Z"/><path class="cls-1" d="M.7,20.4l-.18-.7,5.25-1.36L6,19Z"/><path class="cls-1" d="M19.79,25.94l.64-.27c.06.07,2,4.66,2.08,5l-.65.27C21.81,30.87,19.9,26.27,19.79,25.94Z"/></g></g></svg>