<svg xmlns="http://www.w3.org/2000/svg" viewBox="0 0 2819.43 799.09"><defs><style>.cls-1{fill:#fff;}</style></defs><g id="Capa_2" data-name="Capa 2"><g id="Capa_1-2" data-name="Capa 1"><path class="cls-1" d="M0,.44C2.22.31,4.45.05,6.67.05Q139.12,0,271.58,0c4.8,0,9.6,0,14.4,0,1.4,0,2.79.23,4.44.38Q330.69,191,370.86,381q40.2,190.18,80.46,380.5a10.69,10.69,0,0,0,2.36.59q16.8,0,33.6,0a4,4,0,0,0,.91-.2c1.24-.81,1.26-2.15,1.52-3.39q7.14-33.76,14.3-67.54,9.81-46.42,19.61-92.87,9.92-46.9,19.83-93.81,11.32-53.46,22.65-106.93,11.74-55.57,23.45-111.17,10.74-50.89,21.53-101.78,10.36-49,20.7-98,8.67-41,17.35-82.08c.26-1.23.69-2.43,1.08-3.8,1.18-.14,2.26-.33,3.35-.39s2.24,0,3.36,0q137.51,0,275,0c2.2,0,4.44-.26,6.57.41A6,6,0,0,1,939,2q.06,397,.07,794.06a21.48,21.48,0,0,1-.31,2.54c-1,.16-1.91.36-2.83.44s-1.92,0-2.88,0q-66.94,0-133.89,0c-1.87,0-3.8.3-5.75-.52a17.11,17.11,0,0,1-.29-1.93c-.05-1.6,0-3.2,0-4.8q0-326.74,0-653.48a41.88,41.88,0,0,1,1.68-11.78q12-41.46,23.7-83c.55-2,1.62-3.85,1.18-6.07a5.16,5.16,0,0,0-1.36-.43q-21.84,0-43.67,0a6.72,6.72,0,0,0-1.69.57Q689.09,417.77,605.25,798.46c-1.06.19-2.11.47-3.17.57s-2.24,0-3.36,0H342.92c-2.05,0-4.1-.08-6.43-.13-3.28-13.58-6.07-27-9.06-40.37s-5.87-26.52-8.81-39.79-6-26.83-9-40.24-6-26.83-9-40.25q-4.43-19.87-8.81-39.78-4.44-20.13-8.88-40.26-4.41-19.89-8.85-39.77-4.49-20.13-9-40.24T256.32,438q-4.4-19.9-8.81-39.79-4.47-20.12-9-40.24t-8.93-40.24q-4.41-19.89-8.79-39.79-4.45-20.13-8.92-40.25L203,197.87q-4.48-20.13-8.95-40.25t-8.88-40.26c-2.93-13.26-5.81-26.53-8.83-39.77s-5.77-26.82-9.12-40.39c-4-.42-7.85-.18-11.64-.22s-7.36,0-11,0c-3.84,0-7.68-.06-11.52,0-3.65.08-7.32-.39-10.88.33-.76,1.61,0,2.94.35,4.31q8,29.37,16,58.74,3.92,14.32,7.89,28.65a28.05,28.05,0,0,1,1,7.57c0,12.48,0,24.95,0,37.43q0,308.75,0,617.5c0,2.35.42,4.78-.68,7.41-1.51,0-3.08.12-4.66.12H4.31c-1.44,0-2.87-.12-4.31-.18Z"/><path class="cls-1" d="M2819.38,172q-160.44,113.58-320.61,226.9c-.09,2,1.36,2.34,2.33,3q15.43,11,30.92,21.92l282.79,200.08c1.43,1,2.82,2.08,4.09,3,.58,3.86.73,161,.2,166.62-1.33.73-2.09-.4-2.92-1q-17-12.15-33.9-24.36Q2613.83,647,2445.36,525.81c-6.56-4.72-4-3.87-12.28-3.92-9.6,0-19.2.11-28.8-.07a14.46,14.46,0,0,0-9.26,3q-74.25,53.73-148.61,107.29L2026.18,791c-1.54,1.12-3.1,2.21-4.49,3.2-1.37-.35-1.19-1.24-1.22-2,0-1.28,0-2.56,0-3.84V627.55c1.37-1,2.61-2,3.9-2.93l199.14-141.38Q2280,443.1,2336.54,403c1.39-1,3-1.76,3.87-3.09a5.65,5.65,0,0,0-.16-.78,1.8,1.8,0,0,0-.27-.39,3.87,3.87,0,0,0-.37-.32l-.37-.3-.38-.3-1.17-.83L2022,172.79a8.67,8.67,0,0,1-.72-.64c-.11-.11-.22-.24-.38-.42s-.1-.2-.16-.34a1.53,1.53,0,0,1-.14-.46c0-1.28-.12-2.55-.12-3.83q0-80.37,0-160.74a2.42,2.42,0,0,1,0-.47,2,2,0,0,1,.16-.45,4.87,4.87,0,0,1,.5-.57c1.62.48,2.89,1.73,4.26,2.72q25.86,18.69,51.69,37.43l316.67,229.43a21.86,21.86,0,0,1,2.32,1.69c1.9,1.77,4.14,2.15,6.64,2.13,10.72-.07,21.44-.14,32.15,0a14.49,14.49,0,0,0,9.27-3q41.14-29.91,82.42-59.62L2814.45,7.82c1.28-.92,2.6-1.8,3.8-2.62,1.27.33,1.08,1.23,1.11,2,0,1.12,0,2.24,0,3.36V172Z"/><path class="cls-1" d="M1094.57,471.81c-.64-4.57-1-122.61-.41-141.64,0-.93.2-1.85.28-2.52a5,5,0,0,1,.63-.52,1,1,0,0,1,.44-.14c1.12-.06,2.23-.13,3.35-.13q397.61,0,795.19.08a5.4,5.4,0,0,1,1.19.38,24,24,0,0,1,.42,2.56c.08,1.11,0,2.24,0,3.36q0,66.43,0,132.89c0,1.89.22,3.8-.25,5.38a5.17,5.17,0,0,1-.63.55,1.06,1.06,0,0,1-.46.13c-1.27.05-2.55.14-3.83.14l-794.71-.09A5.45,5.45,0,0,1,1094.57,471.81Z"/></g></g></svg>