<svg xmlns="http://www.w3.org/2000/svg" viewBox="0 0 2205.74 2200.1"><defs><style>.cls-1{fill:#fff;fill-rule:evenodd;}</style></defs><g id="Capa_2" data-name="Capa 2"><g id="RADIO_Image" data-name="RADIO Image"><path class="cls-1" d="M1159.92,0c5.08.93,10.12,2.14,15.24,2.74,22.54,2.65,45.11,5.05,67.66,7.68a68,68,0,0,1,31.87,12c17,12,24.92,29,25.81,49.17a210.27,210.27,0,0,1-1.38,30.6c-2.16,21.09-4.56,42.16-7.49,63.15a118.45,118.45,0,0,1-6.12,23.07c-5.21,14.66-15.36,24.85-29.87,30.63-1.82.72-3.59,1.57-6,2.61,9,55.65,17.95,111.16,27.08,167.72l-49.29-5.5c-8.55-52.61-17-104.71-25.55-157.11l-18.82-2.08c-5.73,50.85-11.39,101.08-17.15,152.23l-49.2-5.45c1.14-10.76,2.16-20.85,3.29-30.93q4.88-43.5,9.84-87,5-44.62,10-89.24c3.22-28.75,6.36-57.52,9.59-86.27q4.39-39,8.92-78Zm28.41,177.76c10.69,1,20.55,2.52,30.45,2.74s17.27-4.85,20.67-14.33a85.93,85.93,0,0,0,4.35-17.33q3.26-24.1,5.62-48.32a130.85,130.85,0,0,0,.46-22.39C1249,65.9,1242.53,59,1230.52,56.8c-7.6-1.38-15.33-2-23-2.87a35.3,35.3,0,0,0-5.34.27C1197.55,95.42,1193,136.21,1188.33,177.76Z"/><path class="cls-1" d="M2205.74,1117.73a6.46,6.46,0,0,0-1.1,1.87c-5.18,30.07-22.49,48-52.41,53.62a155.37,155.37,0,0,1-24.53,2.51c-21.22.57-42.44.65-63.67.87-10.76.11-21.44-.65-31.9-3.47-26.35-7.1-43.49-27.81-45.09-55.1-.65-11.21-.6-22.46-.9-33.69-.06-2.45-.23-4.9-.38-8.09l-153,2.46v-48.55c5.55-1.52,359.85-7.71,371.68-6.25,0,5.74-.16,11.66,0,17.57.28,8.44.81,16.87,1.24,25.31Zm-172.86-42.26c.65,11.75.74,22.2,2,32.53,1,8.06,6.18,13.7,14,15.91a67.91,67.91,0,0,0,17.58,2.8q27.68.26,55.34-.61a95.84,95.84,0,0,0,20.64-2.93c8-2,13.58-7.37,15.35-15.75,2.34-11.08.62-22.18.52-33.94Z"/><path class="cls-1" d="M636.23,540.44l-43.77,46.79-221.31-119-.94,1.17,178,165.2-33.92,36.26L241.87,416.06l42.57-45.5,226.21,120.3.89-1.23L330.35,321.45l33-35.35C368.56,288.8,628,530.64,636.23,540.44Z"/><path class="cls-1" d="M1501.83,217.53C1466.36,289.16,1430.9,360.8,1395,433.3c-14.76-7.36-29.13-14.54-44.41-22.18L1517.29,77.51,1573,105.33Q1547.54,231,1522.16,356l1.54.53,109.49-221.16,44.41,22.2L1510.89,491.2l-57.82-28.84c16.55-81.42,33.94-162.72,50.56-244.18Z"/><path class="cls-1" d="M1804.62,1699.38c-6.06,2.46-11,4.87-16.19,6.49a52.34,52.34,0,0,1-40-3.33,86.91,86.91,0,0,1-14-8.6c-15.48-11.8-31-23.52-46-36a114.73,114.73,0,0,1-20.47-21.66c-15.49-22.2-15.8-45.53-2.37-69a69.47,69.47,0,0,1,5.48-8q25.73-33.11,51.54-66.15c.9-1.16,1.94-2.2,3.32-3.76l293.7,228.84c-1.1,1.67-1.71,2.72-2.45,3.67q-24.62,31.61-49.26,63.19c-7.68,9.83-17.12,17.42-28.87,21.89-15.15,5.75-30.48,5.84-45.25-.57a141.48,141.48,0,0,1-25.92-14.73c-14-10-27.38-20.88-40.85-31.62-11.37-9.06-20.64-19.83-23.13-34.7-1-6-.48-12.36-.44-18.55C1803.5,1704.55,1804.14,1702.36,1804.62,1699.38Zm-72.36-142.18c-7.5,10.07-15.07,19.31-21.56,29.26-4.9,7.51-4.32,15.93,1,23.21a71.23,71.23,0,0,0,12.23,13q20,16.29,40.73,31.74a57.51,57.51,0,0,0,14.39,7.76c8.75,3.23,17.36,2.1,24.72-3.87,9.34-7.59,15.35-18,23.09-27.4Zm219.92,171.35L1864,1659.86c-6.47,8.76-13.14,16.82-18.69,25.6-4.8,7.59-4.19,16,1.26,23.19a80.66,80.66,0,0,0,12.85,13.46c11,9,22.25,17.72,33.63,26.23a74.86,74.86,0,0,0,14.11,8.35c10.55,4.72,19.42,2.91,27.07-5.7C1940.36,1744.12,1945.77,1736.64,1952.18,1728.55Z"/><path class="cls-1" d="M188.73,1711.56c-1.39-2.08-2.57-3.64-3.53-5.32q-19.17-33.43-38.28-66.92c-5.78-10.1-9.7-20.82-10.22-32.53a58.1,58.1,0,0,1,15.18-42.58c8.05-9.07,17.69-16.12,28.14-22.11q77.62-44.46,155.28-88.84c12.57-7.18,25.1-14.41,37.75-21.44a100.62,100.62,0,0,1,31.43-11.64c22.68-4,41.26,3.53,56.42,20.24a74.72,74.72,0,0,1,9.14,12.74c13.39,23.1,26.57,46.32,39.81,69.5.6,1,1.06,2.19,2,4.08Zm15.87-66.31,242-138.42c-5.59-9.29-10.35-18.33-16.2-26.6-5.53-7.82-13.8-10.68-23.16-7.87a83.21,83.21,0,0,0-17.25,7q-90.37,51.39-180.5,103.23a77,77,0,0,0-14.25,10.8c-7.71,7.29-9.61,16.31-4.9,25.92C194.62,1628,199.64,1636.28,204.6,1645.25Z"/><path class="cls-1" d="M737.74,2140.38c-18.1-7.78-35-15-52-22.35-9.61-4.16-19.34-8.11-28.75-12.69-18.22-8.88-30.79-22.79-35.63-42.8-2.75-11.4-1.54-22.83,1.31-34.09a56,56,0,0,1,2.6-8.59c11.42-26.57,22.85-53.15,34.54-79.61,2.1-4.74,5.28-9,8.24-13.35,10.12-14.73,24.11-22.77,42-23.92,1-.07,2-.24,3-.4a8.73,8.73,0,0,0,1.46-.7c7.51-55.25,15.1-111,22.82-167.75l45.53,19.58c-7.05,52.36-14.09,104.68-21.24,157.75l17.25,7.56c20.58-46.77,40.25-93.52,60.88-140.76l45.55,19.6C836,1912.18,787.05,2025.89,737.74,2140.38Zm22.54-177.88c-7.26-3.15-13.63-5.94-20-8.69-2.06-.88-4.11-1.81-6.24-2.49-11.29-3.64-19.84-1.13-27,8.47a70.3,70.3,0,0,0-7.93,13.49q-11.55,26-22.47,52.17A77.6,77.6,0,0,0,672,2042c-1.39,8.17,1.18,15.26,7.73,20.67,4.56,3.77,24.63,12.55,31.56,13.69Z"/><path class="cls-1" d="M194.56,1014.89c37.94.66,75.88,1.17,113.81,2.11a136.76,136.76,0,0,1,25.92,3c24.66,5.44,40.23,21.29,47.67,44.92a92.37,92.37,0,0,1-.63,58.19c-9.72,28.85-30.44,44.12-60.49,46.93a156.78,156.78,0,0,1-17.21.39q-113.07-1.67-226.12-3.54a128,128,0,0,1-23-2.63c-25.63-5.17-41.89-21-49.7-45.59a102,102,0,0,1-.91-59c7.17-26,26.14-41.89,54.46-45.26a185.19,185.19,0,0,1,23.88-1.32c37.44.46,74.88,1.2,112.31,1.83ZM183,1119c47.3.75,82.48,1.47,117.67,1.72a70.71,70.71,0,0,0,20.57-2.83c10.92-3.26,17.35-12.7,17.54-23.53s-5.87-20.55-16.56-24.27a62.51,62.51,0,0,0-19-3.4q-108.91-2.21-217.83-3.81A67.65,67.65,0,0,0,67,1065.19c-12,3.25-18.85,12.35-19.15,23.82-.31,12,6.2,21.69,18.15,25.36a71,71,0,0,0,19.11,3C121.77,1118.16,158.45,1118.58,183,1119Z"/><path class="cls-1" d="M2172.6,1382.08c-5.3,15.64-10.4,30.7-15.78,46.56-3.21-1-6-1.71-8.76-2.63q-133.2-45.15-266.4-90.26a99.48,99.48,0,0,0-18.79-4.8c-18.39-2.36-32.47,11.14-30.45,28.71a24.24,24.24,0,0,0,12.24,18.76,102.84,102.84,0,0,0,19,8.69q119.67,40.76,239.45,81.21,14.88,5.06,29.74,10.13c1.84.64,3.63,1.43,6.27,2.48l-15.72,46.42c-3.29-1-5.88-1.68-8.41-2.54q-136.75-46.32-273.45-92.76a146.57,146.57,0,0,1-24.64-10.72c-25-14.16-35.12-36.56-33.24-64.6,1-14.6,5.64-28.34,12.92-41.08,17.11-30,45.62-42.42,79.5-33.51,17.57,4.63,34.68,11,51.92,16.85q118,39.87,235.95,79.89C2166.49,1379.75,2169,1380.76,2172.6,1382.08Z"/><path class="cls-1" d="M558.19,1586.52l37,33c-15.84,22.69-31.5,45.11-47.71,68.34l41,36.56,62.37-55.28,37.05,33c-95.46,81.94-190.24,163.29-285.57,245.1l-54.53-48.57ZM520.41,1727c-34,48.67-67.52,96.51-101,144.36a10.18,10.18,0,0,0-1,2c-.06.15.11.44.25.61s.35.23.95.61l133.44-118.41Z"/><path class="cls-1" d="M1186.79,1949.72l-49,6.23c-1.11-7.77-2.18-14.85-3.12-21.94-1.44-10.88-3.32-21.75-4-32.68a151.44,151.44,0,0,1,.48-28.33c2.57-20.52,14-35.58,31.73-45.57,21.84-12.31,45.36-15.13,69.53-8.94,24.87,6.38,40.66,22.8,47.17,47.44,3,11.52,4.49,23.5,6.08,35.35,4.53,33.63,8.77,67.3,13.09,101q6.35,49.37,12.62,98.75c1.58,12.37,3.35,24.66,1.81,37.27-2.43,19.86-11.57,35.59-28.28,46.31-24.44,15.67-51.13,19.37-79,11.59-19.83-5.54-33.65-18.58-39.75-38.37-3.28-10.65-5-21.85-6.67-32.91-2.55-16.73-4.46-33.56-6.78-51.36l49-6.42c1.08,7.74,2.09,14.81,3,21.89,1.53,11.37,2.66,22.82,4.68,34.1a52,52,0,0,0,5.6,16.12c5.57,9.87,14.52,14,25.88,12.55a24,24,0,0,0,20.73-18.94,62.36,62.36,0,0,0,1.06-20c-7-56-14.38-111.86-21.62-167.79-2.15-16.58-4-33.21-6.46-49.73a65.3,65.3,0,0,0-5.29-17.81,24.64,24.64,0,0,0-26.41-14.21c-11.83,1.86-20.68,10.21-21.86,22.29-.77,7.86-.16,15.94.62,23.84C1183,1922.51,1185,1935.55,1186.79,1949.72Z"/><path class="cls-1" d="M938.24,345.86l82-16.51c3.18,15.58,6.2,30.41,9.42,46.19L899,402.06c-24.72-122-49.32-243.31-74.09-365.53L955.56,10c3.18,15.62,6.2,30.44,9.41,46.19L882.94,73c7.58,37.39,15,74.16,22.61,111.53l78.71-15.79c3.19,15.71,6.21,30.52,9.38,46.12L915,231C922.76,269.41,930.4,307.19,938.24,345.86Z"/><path class="cls-1" d="M1851.42,290.35l92.9,95.75L1910.43,419l-58.32-60.08-81.76,79.32,55.89,57.67-33.74,32.8c-18.81-18.84-36.88-38-56.09-57.52l-84.18,81.63L1710.48,613l-33.85,32.85c-31.11-32.07-61.78-63.67-92.9-95.76C1673,463.41,1761.87,377.22,1851.42,290.35Z"/><path class="cls-1" d="M1739.91,744.61l288.88-150.37-21.17-41.1,41.78-21.75c21.86,42,43.56,83.63,65.67,126.09l-41.83,21.74-21.5-40.91L1762.9,788.6Z"/><path class="cls-1" d="M586.9,185.88l-40.77,21.79-22.32-41.54C565.6,143.68,607,121.43,649,98.84l22.34,41.5-40.66,22,154.1,286.9-43.72,23.5Z"/><path class="cls-1" d="M1550.85,1735.3l-48.45,34.22c-9.07-12.75-18-25.22-27.34-38.43l89-63.08c71.9,101.43,143.56,202.53,215.71,304.3l-40.52,28.7C1676.38,1912.38,1613.92,1824.26,1550.85,1735.3Z"/><path class="cls-1" d="M113.22,628.44c7.68-15.22,14.85-29.4,22.39-44.32l332.9,168.15-22.39,44.32Z"/><path class="cls-1" d="M48.23,1402.49c-4.18-16-8.25-31.54-12.56-48l361-93.72,12.55,48Z"/><path class="cls-1" d="M1360.39,1783.15l44.3-18.28c4,5,134.77,320.48,142.86,344.47l-44.32,18.34C1499.25,2122.64,1367.94,1805.88,1360.39,1783.15Z"/></g></g></svg>